<svg width="18" height="18" viewBox="0 0 18 18" fill="none" xmlns="http://www.w3.org/2000/svg">
<g clip-path="url(#clip0_15672_42385)">
<path d="M4.635 15C5.53799 15 6.27 14.268 6.27 13.365C6.27 12.462 5.53799 11.73 4.635 11.73C3.73201 11.73 3 12.462 3 13.365C3 14.268 3.73201 15 4.635 15Z" fill="#747373"/>
<path d="M4.1925 7.6725C3.5625 7.5675 3 8.085 3 8.7225C3 9.255 3.3975 9.6825 3.9225 9.7725C6.1125 10.155 7.8375 11.8875 8.2275 14.0775C8.3175 14.6025 8.745 15 9.2775 15C9.915 15 10.4325 14.4375 10.335 13.8075C9.825 10.6575 7.3425 8.175 4.1925 7.6725ZM4.17 3.39C3.5475 3.3225 3 3.825 3 4.4475C3 4.995 3.4125 5.445 3.9525 5.4975C8.46 5.9475 12.045 9.5325 12.495 14.04C12.5475 14.5875 12.9975 15 13.545 15C14.175 15 14.67 14.4525 14.61 13.83C14.0625 8.325 9.6825 3.9375 4.17 3.39Z" fill="#747373"/>
</g>
<defs>
<clipPath id="clip0_15672_42385">
<rect width="18" height="18" fill="white"/>
</clipPath>
</defs>
</svg>
