<svg width="16" height="16" viewBox="0 0 16 16" fill="none" xmlns="http://www.w3.org/2000/svg">
<g clip-path="url(#clip0_16856_31624)">
<path d="M8.00044 1.5C6.87823 1.49976 5.77508 1.79006 4.79835 2.34264C3.82162 2.89523 3.0046 3.69128 2.4268 4.65331C1.849 5.61534 1.53012 6.71058 1.50118 7.83241C1.47225 8.95425 1.73425 10.0645 2.26169 11.055L1.55232 13.1831C1.49356 13.3593 1.48503 13.5484 1.52769 13.7292C1.57035 13.9099 1.66251 14.0753 1.79385 14.2066C1.92518 14.3379 2.0905 14.4301 2.27127 14.4728C2.45204 14.5154 2.64112 14.5069 2.81732 14.4481L4.94544 13.7388C5.81717 14.2024 6.78308 14.4614 7.76983 14.496C8.75659 14.5306 9.73827 14.34 10.6404 13.9386C11.5424 13.5372 12.3412 12.9355 12.9761 12.1793C13.6109 11.4231 14.0651 10.5322 14.3043 9.57421C14.5434 8.61624 14.5611 7.61638 14.3561 6.65052C14.1512 5.68467 13.7288 4.77821 13.1212 3.99995C12.5136 3.22169 11.7367 2.59208 10.8494 2.15891C9.96211 1.72574 8.98781 1.50041 8.00044 1.5ZM5.25044 8.75C5.10211 8.75 4.9571 8.70601 4.83376 8.6236C4.71043 8.54119 4.6143 8.42406 4.55753 8.28701C4.50077 8.14997 4.48591 7.99917 4.51485 7.85368C4.54379 7.7082 4.61522 7.57456 4.72011 7.46967C4.825 7.36478 4.95864 7.29335 5.10412 7.26441C5.24961 7.23547 5.40041 7.25032 5.53745 7.30709C5.6745 7.36386 5.79163 7.45999 5.87404 7.58332C5.95646 7.70666 6.00044 7.85166 6.00044 8C6.00044 8.19891 5.92142 8.38968 5.78077 8.53033C5.64012 8.67098 5.44935 8.75 5.25044 8.75ZM8.00044 8.75C7.85211 8.75 7.7071 8.70601 7.58376 8.6236C7.46043 8.54119 7.3643 8.42406 7.30753 8.28701C7.25077 8.14997 7.23591 7.99917 7.26485 7.85368C7.29379 7.7082 7.36522 7.57456 7.47011 7.46967C7.575 7.36478 7.70864 7.29335 7.85412 7.26441C7.99961 7.23547 8.15041 7.25032 8.28745 7.30709C8.4245 7.36386 8.54163 7.45999 8.62404 7.58332C8.70646 7.70666 8.75044 7.85166 8.75044 8C8.75044 8.19891 8.67142 8.38968 8.53077 8.53033C8.39012 8.67098 8.19935 8.75 8.00044 8.75ZM10.7504 8.75C10.6021 8.75 10.4571 8.70601 10.3338 8.6236C10.2104 8.54119 10.1143 8.42406 10.0575 8.28701C10.0008 8.14997 9.98591 7.99917 10.0149 7.85368C10.0438 7.7082 10.1152 7.57456 10.2201 7.46967C10.325 7.36478 10.4586 7.29335 10.6041 7.26441C10.7496 7.23547 10.9004 7.25032 11.0375 7.30709C11.1745 7.36386 11.2916 7.45999 11.374 7.58332C11.4565 7.70666 11.5004 7.85166 11.5004 8C11.5004 8.19891 11.4214 8.38968 11.2808 8.53033C11.1401 8.67098 10.9494 8.75 10.7504 8.75Z" fill="#00A91B"/>
</g>
<defs>
<clipPath id="clip0_16856_31624">
<rect width="16" height="16" fill="white"/>
</clipPath>
</defs>
</svg>
